<?xml version="1.0" encoding="UTF-8" standalone="no"?>
<!-- Created with Inkscape (http://www.inkscape.org/) -->

<svg
   xmlns:dc="http://purl.org/dc/elements/1.1/"
   xmlns:cc="http://creativecommons.org/ns#"
   xmlns:rdf="http://www.w3.org/1999/02/22-rdf-syntax-ns#"
   xmlns:svg="http://www.w3.org/2000/svg"
   xmlns="http://www.w3.org/2000/svg"
   version="1.1"
   width="500"
   height="500"
   id="svg2">
  <metadata
     id="metadata8">
    <rdf:RDF>
      <cc:Work
         rdf:about="">
        <dc:format>image/svg+xml</dc:format>
        <dc:type
           rdf:resource="http://purl.org/dc/dcmitype/StillImage" />
        <dc:title></dc:title>
      </cc:Work>
    </rdf:RDF>
  </metadata>
  <defs
     id="defs6" />
  <path
     d="m 444.91525,223.51695 a 240.46609,257.41525 0 1 1 -480.932187,0 240.46609,257.41525 0 1 1 480.932187,0 z"
     transform="matrix(0.90553306,0,0,0.84590947,64.864974,60.924894)"
     id="path2983"
     style="fill:none;stroke:#000000;stroke-width:45.703125;stroke-linecap:butt;stroke-linejoin:miter;stroke-miterlimit:4;stroke-opacity:1;stroke-dasharray:none;stroke-dashoffset:0" />
  <path
     d="m 301.80953,350.75102 c -44.93478,0 -89.86957,0 -134.80435,0 0.0211,-9.5 0.0423,-19 0.0634,-28.5 28.89562,-20.43644 57.51876,-41.72032 84.1165,-64.90147 84.95957,-75.43868 -51.0627,-113.92087 -54.83976,-35.85964 0.54702,5.85792 0.44672,6.27121 -1.62858,6.71099 -5.00824,1.06129 -26.95293,3.64204 -27.37554,3.21944 -12.48303,-53.01056 37.17958,-91.63849 85.53857,-88.14589 65.53104,4.7328 92.96822,42.31981 72.17832,90.97659 -28.26084,43.45024 -54.55006,51.13045 -91.55291,74.55643 40.93674,-1.61594 47.76122,2.26 66.03838,-1.24143 7.06738,-7.22951 5.63329,-14.76345 8.75633,-23.44306 9.99097,-0.45368 17.61867,-0.0854 28.31445,0.12804 -4.36972,24.16639 -8.73944,48.33277 -13.10916,72.49916 -6.53468,2.8e-4 -13.06936,5.6e-4 -19.60404,8.4e-4 -0.6972,-2 -1.3944,-4 -2.09161,-6 z"
     id="path2987"
     style="fill:#000000;fill-opacity:1" />
</svg>
